HIERARCHY
ROOT Hips
{
	OFFSET 0.000000 0.000000 0.000000
	CHANNELS 6 Xposition Yposition Zposition Xrotation Yrotation Zrotation
	JOINT LeftUpLeg_virtual
	{
		OFFSET 0.000000 0.000000 0.000000
		CHANNELS 3 Xrotation Yrotation Zrotation
		JOINT LeftUpLeg
		{
			OFFSET 11.394100 -6.187798 -0.413800
			CHANNELS 3 Xrotation Yrotation Zrotation
			JOINT LeftLeg
			{
				OFFSET 0.430247 -32.302673 3.732800
				CHANNELS 3 Xrotation Yrotation Zrotation
				JOINT LeftFoot
				{
					OFFSET -0.430247 -48.264931 -6.423300
					CHANNELS 3 Xrotation Yrotation Zrotation
					JOINT LeftToeBase
					{
						OFFSET 4.230900 -16.068199 23.438400
						CHANNELS 3 Xrotation Yrotation Zrotation
						JOINT LeftToe_End
						{
							OFFSET 4.510700 0.695400 19.974600
							CHANNELS 3 Xrotation Yrotation Zrotation
							End Site
							{
								OFFSET 0 0 0
							}
						}
					}
				}
			}
		}
	}
	JOINT RightUpLeg_virtual
	{
		OFFSET 0.000000 0.000000 0.000000
		CHANNELS 3 Xrotation Yrotation Zrotation
		JOINT RightUpLeg
		{
			OFFSET -11.333700 -6.187798 -0.413800
			CHANNELS 3 Xrotation Yrotation Zrotation
			JOINT RightLeg
			{
				OFFSET -0.430392 -32.302628 3.733000
				CHANNELS 3 Xrotation Yrotation Zrotation
				JOINT RightFoot
				{
					OFFSET 0.430392 -48.264973 -6.423500
					CHANNELS 3 Xrotation Yrotation Zrotation
					JOINT RightToeBase
					{
						OFFSET -4.230900 -16.068199 23.438400
						CHANNELS 3 Xrotation Yrotation Zrotation
						JOINT RightToe_End
						{
							OFFSET -4.510700 0.695400 19.974600
							CHANNELS 3 Xrotation Yrotation Zrotation
							End Site
							{
								OFFSET 0 0 0
							}
						}
					}
				}
			}
		}
	}
	JOINT Spine_virtual
	{
		OFFSET 0.000000 0.000000 0.000000
		CHANNELS 3 Xrotation Yrotation Zrotation
		JOINT Spine
		{
			OFFSET -0.002400 12.777504 0.315300
			CHANNELS 3 Xrotation Yrotation Zrotation
			JOINT Spine1
			{
				OFFSET -0.002067 5.816869 0.032633
				CHANNELS 3 Xrotation Yrotation Zrotation
				JOINT Spine1_split
				{
					OFFSET -0.002067 5.816869 0.032633
					CHANNELS 3 Xrotation Yrotation Zrotation
					JOINT Spine2
					{
						OFFSET -0.002067 5.816869 0.032633
						CHANNELS 3 Xrotation Yrotation Zrotation
						JOINT Neck_virtual
						{
							OFFSET 0.000000 0.000000 0.000000
							CHANNELS 3 Xrotation Yrotation Zrotation
							JOINT Neck
							{
								OFFSET -0.003700 21.199493 -0.826900
								CHANNELS 3 Xrotation Yrotation Zrotation
								JOINT Head
								{
									OFFSET 0.000000 20.442200 4.834800
									CHANNELS 3 Xrotation Yrotation Zrotation
									JOINT HeadTop_End
									{
										OFFSET 0.000000 34.668396 4.968400
										CHANNELS 3 Xrotation Yrotation Zrotation
										End Site
										{
											OFFSET 0 0 0
										}
									}
								}
							}
						}
						JOINT LeftShoulder_virtual
						{
							OFFSET 0.000000 0.000000 0.000000
							CHANNELS 3 Xrotation Yrotation Zrotation
							JOINT LeftShoulder
							{
								OFFSET 3.288150 8.794197 -1.372250
								CHANNELS 3 Xrotation Yrotation Zrotation
								JOINT LeftShoulder_split
								{
									OFFSET 3.288150 8.794197 -1.372250
									CHANNELS 3 Xrotation Yrotation Zrotation
									JOINT LeftArm
									{
										OFFSET 11.953299 -2.279007 -0.146200
										CHANNELS 3 Xrotation Yrotation Zrotation
										JOINT LeftForeArm
										{
											OFFSET 18.448900 0.000000 0.000000
											CHANNELS 3 Xrotation Yrotation Zrotation
											JOINT LeftHand
											{
												OFFSET 29.527798 0.000000 0.000000
												CHANNELS 3 Xrotation Yrotation Zrotation
												End Site
												{
													OFFSET 0 0 0
												}
											}
										}
									}
								}
							}
						}
						JOINT RightShoulder_virtual
						{
							OFFSET 0.000000 0.000000 0.000000
							CHANNELS 3 Xrotation Yrotation Zrotation
							JOINT RightShoulder
							{
								OFFSET -3.249400 8.794197 -1.372250
								CHANNELS 3 Xrotation Yrotation Zrotation
								JOINT RightShoulder_split
								{
									OFFSET -3.249400 8.794197 -1.372250
									CHANNELS 3 Xrotation Yrotation Zrotation
									JOINT RightArm
									{
										OFFSET -11.953299 -2.279007 -0.146200
										CHANNELS 3 Xrotation Yrotation Zrotation
										JOINT RightForeArm
										{
											OFFSET -18.448900 0.000000 0.000000
											CHANNELS 3 Xrotation Yrotation Zrotation
											JOINT RightHand
											{
												OFFSET -29.527802 0.000000 0.000000
												CHANNELS 3 Xrotation Yrotation Zrotation
												End Site
												{
													OFFSET 0 0 0
												}
											}
										}
									}
								}
							}
						}
					}
				}
			}
		}
	}
}
MOTION
Frames: 9
Frame Time: 0.03333333
0.548196 101.032921 -1.047405 0.000000 0.000000 0.000000 2.912637 -28.992732 1.099293 -17.586281 18.039300 11.713295 15.595948 13.146068 -1.047463 -0.208391 -4.071451 -5.300768 -0.131852 -0.014310 -0.311713 0.000000 0.000000 0.000000 2.912637 -28.992732 1.099293 -8.762043 -1.425576 -9.027586 10.754658 9.473390 0.841693 -5.319224 -0.876831 7.446399 -1.288153 -0.019880 0.149894 0.000000 0.000000 0.000000 2.912637 -28.992732 1.099293 7.836588 -0.346859 -2.592629 1.099253 -0.880575 2.383464 0.000000 0.000000 0.000000 0.000000 0.000000 0.000000 1.108680 -0.590451 2.446366 -3.842071 18.019057 -6.496396 -6.332478 13.021552 0.301482 0.000000 0.000000 0.000000 1.108680 -0.590451 2.446366 -0.057390 -8.759441 -0.061013 0.000000 0.000000 0.000000 -55.249749 0.330148 -41.449905 11.585991 -65.829554 13.007195 0.000000 0.000000 0.000000 1.108680 -0.590451 2.446366 4.849286 7.760145 5.560445 0.000000 0.000000 0.000000 -0.933497 -2.176885 61.845662 11.299286 18.943451 -3.987510 0.000000 0.000000 0.000000 
0.721053 100.920334 -1.284180 0.000000 0.000000 0.000000 3.001611 -28.715464 1.044678 -18.414251 17.981576 11.962613 16.333323 14.239064 -0.968925 -0.297830 -5.529587 -5.317800 -0.131839 -0.014309 -0.311712 0.000000 0.000000 0.000000 3.001611 -28.715464 1.044678 -9.318526 -1.478534 -8.924989 11.372645 9.039943 0.716904 -5.457714 -0.843873 7.484100 -1.322980 -0.015837 -0.028569 0.000000 0.000000 0.000000 3.001611 -28.715464 1.044678 7.765983 -0.337036 -2.586857 1.051473 -0.856361 2.346641 0.000000 0.000000 0.000000 0.000000 0.000000 0.000000 1.060733 -0.578901 2.409569 -4.035127 18.103343 -6.236035 -6.261315 13.166573 0.315302 0.000000 0.000000 0.000000 1.060733 -0.578901 2.409569 -0.095205 -7.833560 -0.261094 0.000000 0.000000 0.000000 -55.289070 1.044001 -40.597555 10.451513 -65.790445 11.849313 0.000000 0.000000 0.000000 1.060733 -0.578901 2.409569 4.852103 7.875474 5.834436 0.000000 0.000000 0.000000 -0.731465 -2.101487 61.529971 11.542485 18.958860 -4.028551 0.000000 0.000000 0.000000 
0.937649 100.787247 -1.468170 0.000000 0.000000 0.000000 3.072815 -28.267501 0.920952 -19.397722 18.003798 12.215179 17.183991 13.426566 -1.019953 -0.434878 -5.350185 -5.068286 -0.131853 -0.014306 -0.311712 0.000000 0.000000 0.000000 3.072815 -28.267501 0.920952 -9.760691 -1.729197 -8.746926 11.932054 8.428174 0.454707 -5.619260 -0.766832 7.678488 -1.406018 -0.015864 -0.454340 0.000000 0.000000 0.000000 3.072815 -28.267501 0.920952 7.670209 -0.282965 -2.497512 1.024543 -0.785731 2.316041 0.000000 0.000000 0.000000 0.000000 0.000000 0.000000 1.032501 -0.513467 2.374547 -4.234205 18.653812 -6.061270 -6.174074 13.712728 0.322351 0.000000 0.000000 0.000000 1.032501 -0.513467 2.374547 -0.121056 -6.796880 -0.488154 0.000000 0.000000 0.000000 -55.142945 2.029469 -39.651704 9.135339 -66.083829 10.497833 0.000000 0.000000 0.000000 1.032501 -0.513467 2.374547 4.835496 8.084638 5.913528 0.000000 0.000000 0.000000 -0.348455 -2.133826 61.427095 11.793701 19.189408 -4.098375 0.000000 0.000000 0.000000 
1.167566 100.658195 -1.614799 0.000000 0.000000 0.000000 3.198389 -27.757575 0.806016 -20.417107 18.075988 12.480414 18.036151 13.487832 -0.991114 -0.598985 -6.157254 -4.896320 -0.131844 -0.014305 -0.311711 0.000000 0.000000 0.000000 3.198389 -27.757575 0.806016 -10.156689 -2.045854 -8.555304 12.381546 7.758460 0.148543 -5.755855 -0.674175 7.950096 -1.505124 -0.015838 -0.962539 0.000000 0.000000 0.000000 3.198389 -27.757575 0.806016 7.559069 -0.207870 -2.361213 0.981919 -0.683670 2.257197 0.000000 0.000000 0.000000 0.000000 0.000000 0.000000 0.988250 -0.419405 2.309414 -4.421085 20.029627 -5.825419 -6.024799 15.108061 -0.003513 0.000000 0.000000 0.000000 0.988250 -0.419405 2.309414 -0.137809 -5.281944 -0.732835 0.000000 0.000000 0.000000 -55.099737 2.847236 -38.843170 8.518042 -66.232194 9.832319 0.000000 0.000000 0.000000 0.988250 -0.419405 2.309414 4.823349 8.325180 6.084430 0.000000 0.000000 0.000000 0.027496 -1.981527 61.197361 11.923155 19.091917 -4.012287 0.000000 0.000000 0.000000 
1.445727 100.515480 -1.639408 0.000000 0.000000 0.000000 3.312739 -27.133862 0.779062 -21.341099 18.213119 12.554599 18.892858 13.493904 -0.956297 -0.847577 -7.018559 -4.666346 -0.131849 -0.014309 -0.311713 0.000000 0.000000 0.000000 3.312739 -27.133862 0.779062 -10.496810 -2.279459 -8.572144 12.894547 7.033097 -0.119003 -5.993490 -0.621243 8.303580 -1.588150 -0.015815 -1.388311 0.000000 0.000000 0.000000 3.312739 -27.133862 0.779062 7.386289 -0.069712 -2.296239 0.964204 -0.486273 2.231983 0.000000 0.000000 0.000000 0.000000 0.000000 0.000000 0.968520 -0.229714 2.272018 -3.954009 22.754348 -5.876481 -6.536041 17.880602 -1.009382 0.000000 0.000000 0.000000 0.968520 -0.229714 2.272018 -0.097637 -3.831640 -0.993993 0.000000 0.000000 0.000000 -55.094956 4.077403 -37.778497 9.204603 -66.373156 10.434430 0.000000 0.000000 0.000000 0.968520 -0.229714 2.272018 4.816396 8.501688 6.229781 0.000000 0.000000 0.000000 0.563638 -1.726073 61.017331 12.505176 19.261133 -4.145851 0.000000 0.000000 0.000000 
1.806350 100.388962 -1.513668 0.000000 0.000000 0.000000 3.405028 -26.450275 0.797833 -22.070064 18.391324 12.423972 19.662118 13.475288 -0.915332 -1.171523 -7.868928 -4.369327 -0.131843 -0.014308 -0.311711 0.000000 0.000000 0.000000 3.405028 -26.450275 0.797833 -10.628769 -2.336863 -8.816176 13.228290 6.339451 -0.261309 -6.227206 -0.646491 8.718709 -1.622976 -0.015847 -1.566863 0.000000 0.000000 0.000000 3.405028 -26.450275 0.797833 7.192535 0.127520 -2.165517 0.959409 -0.205206 2.170834 0.000000 0.000000 0.000000 0.000000 0.000000 0.000000 0.961656 0.039519 2.194105 -3.267897 27.049245 -6.285111 -6.758908 22.038434 -2.081235 0.000000 0.000000 0.000000 0.961656 0.039519 2.194105 -0.049787 -2.182470 -1.260929 0.000000 0.000000 0.000000 -54.297808 5.181455 -35.736089 6.714849 -67.007175 7.904460 0.000000 0.000000 0.000000 0.961656 0.039519 2.194105 4.802325 8.780398 6.545480 0.000000 0.000000 0.000000 0.892060 -1.910161 60.669709 12.855438 19.314522 -4.255122 0.000000 0.000000 0.000000 
2.227912 100.270370 -1.256630 0.000000 0.000000 0.000000 3.549739 -25.573111 0.899972 -22.702622 18.563430 12.076288 20.345759 13.356765 -0.877833 -1.535514 -8.717023 -3.989145 -0.131851 -0.014307 -0.311712 0.000000 0.000000 0.000000 3.549739 -25.573111 0.899972 -10.904120 -2.555373 -9.150071 13.827495 5.437728 -0.579925 -6.456711 -0.628372 9.312646 -2.017483 -0.005273 -1.916962 0.000000 0.000000 0.000000 3.549739 -25.573111 0.899972 6.924273 0.355905 -2.040196 0.952020 0.138007 2.082962 0.000000 0.000000 0.000000 0.000000 0.000000 0.000000 0.953012 0.366754 2.086822 -2.099965 31.694632 -7.091463 -6.992622 26.566005 -3.468480 0.000000 0.000000 0.000000 0.953012 0.366754 2.086822 0.036099 -0.371900 -1.530129 0.000000 0.000000 0.000000 -53.465495 6.524821 -33.706772 4.056293 -67.682851 5.227730 0.000000 0.000000 0.000000 0.953012 0.366754 2.086822 4.778744 9.110165 6.822620 0.000000 0.000000 0.000000 1.126980 -2.293092 60.418282 12.886398 18.974071 -4.221357 0.000000 0.000000 0.000000 
2.727410 100.076439 -0.852600 0.000000 0.000000 0.000000 3.654117 -24.282414 1.161360 -23.306690 18.710986 11.397268 21.222281 13.008838 -0.865693 -2.038168 -9.607434 -3.492017 -0.131855 -0.017835 -0.311721 0.000000 0.000000 0.000000 3.654117 -24.282414 1.161360 -11.749737 -2.931513 -10.058229 15.537046 4.554877 -0.610730 -6.926121 -0.653272 9.855494 -2.777476 0.002291 -2.180536 0.000000 0.000000 0.000000 3.654117 -24.282414 1.161360 6.665366 0.622805 -2.042478 1.005793 0.560592 1.966752 0.000000 0.000000 0.000000 0.000000 0.000000 0.000000 1.006193 0.771798 1.948120 -0.699924 36.393072 -8.680037 -7.223324 30.833813 -4.043215 0.000000 0.000000 0.000000 1.006193 0.771798 1.948120 0.074864 1.599846 -1.831799 0.000000 0.000000 0.000000 -52.669703 8.047835 -31.831776 2.879564 -68.758695 3.972249 0.000000 0.000000 0.000000 1.006193 0.771798 1.948120 4.751162 9.365994 6.713108 0.000000 0.000000 0.000000 1.295324 -2.883068 60.748631 12.566788 18.459640 -4.151122 0.000000 0.000000 0.000000 
3.366836 99.775085 -0.348850 0.000000 0.000000 0.000000 3.647989 -22.665158 1.377609 -24.064397 18.723283 10.620842 22.582827 12.465674 -0.890600 -2.758927 -10.476269 -2.877411 -0.131854 -0.020913 -0.311727 0.000000 0.000000 0.000000 3.647989 -22.665158 1.377609 -13.071514 -3.449160 -11.089324 18.338978 3.548136 -0.666037 -7.865868 -0.692927 9.865080 -3.419499 -0.028151 -1.813575 0.000000 0.000000 0.000000 3.647989 -22.665158 1.377609 6.513028 0.974362 -1.921538 1.044830 1.102464 1.783088 0.000000 0.000000 0.000000 0.000000 0.000000 0.000000 1.047443 1.291384 1.736223 0.954878 39.773517 -10.366777 -7.612472 33.988435 -4.766993 0.000000 0.000000 0.000000 1.047443 1.291384 1.736223 0.125924 3.222992 -2.278839 0.000000 0.000000 0.000000 -52.272210 9.680968 -30.010311 3.860603 -70.028782 4.778442 0.000000 0.000000 0.000000 1.047443 1.291384 1.736223 4.732738 9.501068 6.421025 0.000000 0.000000 0.000000 1.729265 -3.747986 61.308229 11.955950 17.907238 -4.053585 0.000000 0.000000 0.000000 
